<svg id="Especificaciones" xmlns="http://www.w3.org/2000/svg" viewBox="0 0 58 58"><title>controles_seguridad</title><circle cx="35.481" cy="22.458" r="17.5" style="fill:#faf0ca"/><path d="M20.8,37.692a1.289,1.289,0,0,1-.89-.349l-5.54-5.256a1.152,1.152,0,0,1,0-1.69l1.169-1.109a1.308,1.308,0,0,1,1.781,0l3.48,3.3,8.34-7.912a1.309,1.309,0,0,1,1.781,0l1.169,1.109a1.152,1.152,0,0,1,0,1.69l-10.4,9.867A1.291,1.291,0,0,1,20.8,37.692Zm-4.37-7.742a.2.2,0,0,0-.137.053l-1.169,1.11a.177.177,0,0,0,0,.258l5.54,5.256h0a.2.2,0,0,0,.273,0l10.4-9.867a.176.176,0,0,0,0-.258l-1.169-1.11a.2.2,0,0,0-.273,0l-8.716,8.271a.556.556,0,0,1-.755,0L16.565,30A.2.2,0,0,0,16.429,29.95Z" style="fill:#010101"/><path d="M22.062,52.958a.568.568,0,0,1-.215-.042A28.169,28.169,0,0,1,9.71,43.309,24.493,24.493,0,0,1,5.04,29.06V14.942a.514.514,0,0,1,.438-.5l.665-.114A58.505,58.505,0,0,0,21.817,9.4a.562.562,0,0,1,.49,0A58.505,58.505,0,0,0,37.981,14.33l.664.114a.515.515,0,0,1,.439.5V29.06a24.493,24.493,0,0,1-4.67,14.249,28.18,28.18,0,0,1-12.137,9.607A.572.572,0,0,1,22.062,52.958ZM6.107,15.365V29.06a23.513,23.513,0,0,0,4.487,13.682A27.1,27.1,0,0,0,22.062,51.9,27.094,27.094,0,0,0,33.53,42.742,23.52,23.52,0,0,0,38.017,29.06V15.365l-.226-.038a59.862,59.862,0,0,1-15.729-4.9,59.858,59.858,0,0,1-15.73,4.9Z"/><path d="M22.062,49.364a.553.553,0,0,1-.239-.054C13.6,45.411,8.291,37.5,8.291,29.15v-11.5a.513.513,0,0,1,.424-.5A59.311,59.311,0,0,0,21.828,13.03a.56.56,0,0,1,.467,0,59.284,59.284,0,0,0,13.114,4.122.513.513,0,0,1,.424.5v11.5c0,8.347-5.312,16.261-13.533,20.16A.548.548,0,0,1,22.062,49.364ZM9.358,18.058V29.15c0,7.887,4.977,15.372,12.7,19.14,7.727-3.768,12.7-11.253,12.7-19.14V18.058a61,61,0,0,1-12.7-4.011A61,61,0,0,1,9.358,18.058Z"/></svg>