<svg id="Especificaciones" xmlns="http://www.w3.org/2000/svg" viewBox="0 0 58 58"><title>distancia_social</title><circle cx="28.987" cy="28.9" r="17.5" style="fill:#f9d3e4"/><path d="M18.494,33.137a.444.444,0,0,1-.443-.445V25.28c0-1.943-.833-3.524-2.4-3.524h-.8a5.719,5.719,0,0,1-5.712,0h-.8c-1.572,0-2.405,1.581-2.405,3.524v7.412a.443.443,0,1,1-.885,0V25.28c0-2.434,1.23-4.415,3.286-4.415h.928a.436.436,0,0,1,.228.064,4.838,4.838,0,0,0,5.015,0,.439.439,0,0,1,.228-.064h.925c2.056,0,3.286,1.981,3.286,4.415v7.412A.443.443,0,0,1,18.494,33.137Z" style="fill:#010101"/><path d="M8.044,45.851a.444.444,0,0,1-.443-.445V26.776a.443.443,0,1,1,.886,0v18.63A.444.444,0,0,1,8.044,45.851Z" style="fill:#010101"/><path d="M15.936,45.851a.444.444,0,0,1-.443-.445V26.776a.443.443,0,1,1,.886,0v18.63A.444.444,0,0,1,15.936,45.851Z" style="fill:#010101"/><path d="M11.99,45.851a.444.444,0,0,1-.443-.445V35.532a.443.443,0,1,1,.886,0v9.874A.444.444,0,0,1,11.99,45.851Z" style="fill:#010101"/><path d="M11.99,20.345a3.445,3.445,0,0,1-3.318-3.512,3.4,3.4,0,0,1,3.318-3.461,3.4,3.4,0,0,1,3.317,3.461A3.445,3.445,0,0,1,11.99,20.345Zm0-6.083a2.508,2.508,0,0,0-2.432,2.571,2.568,2.568,0,0,0,2.432,2.621,2.567,2.567,0,0,0,2.431-2.621A2.507,2.507,0,0,0,11.99,14.262Z" style="fill:#010101"/><path d="M52.539,33.137a.444.444,0,0,1-.443-.445V25.28c0-1.943-.612-5.3-2.18-5.3h-.8a5.719,5.719,0,0,1-5.712,0h-.8c-1.571,0-2.183,3.362-2.183,5.305v7.412a.443.443,0,1,1-.885,0V25.28c0-2.434,1.008-6.2,3.065-6.2h.928a.447.447,0,0,1,.228.063,4.836,4.836,0,0,0,5.015,0,.445.445,0,0,1,.228-.063h.924c2.057,0,3.065,3.762,3.065,6.2v7.412A.443.443,0,0,1,52.539,33.137Z" style="fill:#010101"/><path d="M42.31,45.851a.444.444,0,0,1-.443-.445V26.776a.443.443,0,1,1,.886,0v18.63A.444.444,0,0,1,42.31,45.851Z" style="fill:#010101"/><path d="M50.2,45.851a.444.444,0,0,1-.443-.445V26.776a.443.443,0,1,1,.886,0v18.63A.444.444,0,0,1,50.2,45.851Z" style="fill:#010101"/><path d="M46.256,45.851a.444.444,0,0,1-.443-.445v-12.1a.443.443,0,1,1,.886,0v12.1A.444.444,0,0,1,46.256,45.851Z" style="fill:#010101"/><path d="M46.256,18.563a3.445,3.445,0,0,1-3.317-3.512,3.32,3.32,0,1,1,6.635,0A3.445,3.445,0,0,1,46.256,18.563Zm0-6.082a2.506,2.506,0,0,0-2.431,2.57,2.438,2.438,0,1,0,4.863,0A2.507,2.507,0,0,0,46.256,12.481Z" style="fill:#010101"/><path d="M34.541,30.643a.442.442,0,0,1-.306-.123.447.447,0,0,1-.014-.63l1.192-1.25H22.83l1.191,1.25a.448.448,0,0,1-.013.63.441.441,0,0,1-.626-.014l-1.907-2c-.01-.01-.018-.02-.027-.03a.453.453,0,0,1-.095-.222.432.432,0,0,1,0-.088h0a.442.442,0,0,1,.121-.278h0l1.91-2a.443.443,0,0,1,.762.308.449.449,0,0,1-.123.309L22.83,27.749H35.413L34.221,26.5a.449.449,0,0,1-.123-.309.443.443,0,0,1,.763-.308l1.909,2h0a.452.452,0,0,1,.121.278.633.633,0,0,1,0,.087.454.454,0,0,1-.1.223l-.026.03-1.907,2A.437.437,0,0,1,34.541,30.643Z" style="fill:#010101"/></svg>