<svg id="486203be-5b1a-43d8-abf6-9d7e68aa8037" data-name="Capa 1" xmlns="http://www.w3.org/2000/svg" viewBox="0 0 360 113.33"><title>Mesa de trabajo 1</title><path d="M166,68.05c25.48-11.08,1.9-33.87-10-9.65h-2.38L155.07,40l-7.68.07-1.11,17.34h-2.61v7.76l1.82.07V78h7.68V68.37c-.08-1.11,2-1.82,3.24,1.51,4,11.55,17,11.79,22.08,6.72V67.74C174.46,70.66,169.39,72.64,166,68.05Zm-1.18-7.41c-.66-.46-.41-2,.54-3.31s2.27-2.11,2.93-1.65.41,2-.55,3.31S165.47,61.1,164.81,60.64ZM135.28,60c-2.21-3.16-5.62-4.35-9.42-4.35-9.18-18.36-25.8,4.43-10.68,9.18,3.88.47,1.58,4.59-1.9,4.35-3.64-.16-3.88-5.07-3.72-8.07-.4-6.25-11.63-3-9.73,5.86-25.33,19.62-34.51-32.77-1-24.7V33.39c-46.85-6.49-35.61,67.9,6,41.15C115.5,81,125.23,72.41,125.23,66c3.16-.08,4.67,1.34,4.67,3.48v7.6h7V69.16c-.08-2.77,1.9-4,4.44-4.12V57.13C138.76,56.5,135.52,58.4,135.28,60Zm-17.81-1.49a1.44,1.44,0,1,1,1.44-1.44A1.44,1.44,0,0,1,117.47,58.49Zm99.17-2c-3.17-7.13-9.65-8.07-13.61-7.6l-2.38-29-8.15.24L195.11,53C183,65.21,182,98.13,195,98.76c14.08-1.34,9.49-33.24,9.18-35.93-1.75-6.49,5.38-3.8,6,.79l.79,14.88h8.39V66c.08-5.39,6.41-5.39,6.49.15V76.28h8.87v-10C233.26,48.74,220.12,51.75,216.64,56.5ZM197.15,76.81c-.17,4.88-1,8.81-1.87,8.78s-1.42-4-1.25-8.89,1-8.8,1.87-8.78S197.32,71.94,197.15,76.81ZM335.91,52.46c-8.79-.55-23,12.43-30.23,14.33,8.15-19.87-25.72-20.74-17.57,3.56-3.49,1.58-6.57.39-7.84-1.51,7.52-10,10.53-25.8-1.9-27.85-7.6-1.19-15.19,11.95-9.33,27.62-1.67.71-5.07,1.82-5.07,1.82V59h-8.31c-2.22,6.17-8.31,9.42-9.42,8.23-1.34-4.35,4.43-9.1,15.67-9.81V48.58c-14.56.72-24,8.39-25.4,17-.32,12.58,11.16,11.79,18.2,6.73V75.1c-13.77,5.22-13.46,21-2,21.92,10.6.79,12-9.65,11.24-15.91l9-6.25c4.32,7.34,18.6,5.43,24.69.63,2.85,2.22,8.75,1.15,12.19-.79l19.79-12.19c5.93-3.72,7.6,2.06,5.69,4.12-2.92,3-8.54,4.75-9.81,5.06v8.87C348.1,79.45,352.29,52.14,335.91,52.46ZM254,88.3a2.16,2.16,0,1,1,1.93-2A2,2,0,0,1,254,88.3Zm24-32.62c-.38,2.69-1.36,4.78-2.18,4.67S274.6,58,275,55.26s1.35-4.78,2.18-4.67S278.35,53,278,55.68Zm19.4,10.2c-1.15,0-2.07-1.4-2.07-3.13s.92-3.13,2.07-3.13,2.07,1.4,2.07,3.13S298.51,65.88,297.37,65.88ZM327.92,43.6l-4.43-7.36-18,11.63,5.38,6.65ZM57.48,69.24c16.86-37.75-18.2-38.7-11.95-.95-5.78,3.64-12.34,4.27-14.8-.08,20.42,1.11,10.69-24.85-3.4-14.33C24.56,45,33,37.58,43.63,42.41v-10C30.1,26.58,8.1,38.06,21,62.43c-3.09,17.26,15.43,23,29.28,13.62,2.45,2.61,8.71,4.59,14.57.63v-7.6C61.52,71.93,55.82,71.38,57.48,69.24ZM32.79,58.34a2,2,0,1,1-2,2A2,2,0,0,1,32.79,58.34Zm22.13-1.1c-.35,2.86-1.33,5.09-2.19,5s-1.27-2.51-.92-5.36,1.33-5.08,2.19-5S55.27,54.39,54.92,57.24Z" style="fill:#3a3f3a"/></svg>