<svg id="Especificaciones" xmlns="http://www.w3.org/2000/svg" viewBox="0 0 58 58"><title>protocolos_medicos</title><circle cx="35.481" cy="35.448" r="17.5" style="fill:#daeeef"/><path d="M24.41,31.872a1.3,1.3,0,0,1-1.3-1.3v-3.4a19.244,19.244,0,0,1-1.718-1.849,13.009,13.009,0,0,1-.856-1.227,1.3,1.3,0,0,1,1.121-1.982h0a1.284,1.284,0,0,1,1.09.612,10.271,10.271,0,0,0,.686.983c.146.185.7.833.987,1.132.29-.275.837-.859.949-1a10.322,10.322,0,0,0,.769-1.122,1.3,1.3,0,0,1,1.115-.631h.027a1.3,1.3,0,0,1,1.086,1.975,13.042,13.042,0,0,1-.956,1.391,21.2,21.2,0,0,1-1.7,1.715v3.4A1.3,1.3,0,0,1,24.41,31.872Zm-2.766-9.1a.64.64,0,0,0-.546.974,12.36,12.36,0,0,0,.812,1.164,16.536,16.536,0,0,0,1.726,1.835.329.329,0,0,1,.135.266v3.559a.64.64,0,1,0,1.279,0V27.013a.332.332,0,0,1,.125-.259,19.952,19.952,0,0,0,1.716-1.712,12.315,12.315,0,0,0,.908-1.32.643.643,0,0,0,.012-.647.639.639,0,0,0-1.105-.02,11.214,11.214,0,0,1-.818,1.194c-.011.013-1.123,1.349-1.478,1.349-.08,0-.326,0-1.5-1.48a10.808,10.808,0,0,1-.729-1.047.629.629,0,0,0-.534-.3h-.007Zm2.924,2.207h0Z"/><path d="M27.876,22.687a.328.328,0,0,1-.154-.038.332.332,0,0,1-.138-.447,16.462,16.462,0,0,0,1.031-2.42,1.251,1.251,0,0,0-.633-1.447l-.742-.441a.33.33,0,1,1,.337-.568l.743.44a1.906,1.906,0,0,1,.921,2.227,17.314,17.314,0,0,1-1.072,2.518A.332.332,0,0,1,27.876,22.687Z"/><path d="M26.956,18.716a.333.333,0,0,1-.147-.034l-.786-.388h0a1.083,1.083,0,0,1-.559-.665,1.263,1.263,0,0,1,.132-1,1.218,1.218,0,0,1,1.675-.57l.786.388a.331.331,0,0,1,.139.463l-.955,1.637A.329.329,0,0,1,26.956,18.716Zm-.64-1.015.51.252.621-1.065-.469-.232a.566.566,0,0,0-.806.3.606.606,0,0,0-.075.48.42.42,0,0,0,.219.263Z"/><path d="M21.276,22.687a.332.332,0,0,1-.293-.176,17.413,17.413,0,0,1-1.072-2.518,1.9,1.9,0,0,1,.922-2.227l.743-.44a.33.33,0,0,1,.337.568l-.743.44a1.251,1.251,0,0,0-.632,1.448,16.529,16.529,0,0,0,1.03,2.42.332.332,0,0,1-.138.447A.328.328,0,0,1,21.276,22.687Z"/><path d="M22.2,18.716a.33.33,0,0,1-.286-.164l-.955-1.637a.331.331,0,0,1,.139-.463l.786-.388a1.221,1.221,0,0,1,1.68.578,1.258,1.258,0,0,1,.127.987,1.083,1.083,0,0,1-.559.665h0l-.786.388A.332.332,0,0,1,22.2,18.716ZM22.982,18h0Zm-1.277-1.109.622,1.065.509-.252a.417.417,0,0,0,.219-.263.6.6,0,0,0-.07-.471.571.571,0,0,0-.811-.311Z"/><path d="M19.423,37.352a5.95,5.95,0,0,1-2.908-.755,4.72,4.72,0,0,1-2.409-4.113v-6.6a.331.331,0,0,1,.661,0v6.6a4.061,4.061,0,0,0,2.071,3.537,5.32,5.32,0,0,0,5.171,0,4.061,4.061,0,0,0,2.071-3.537v-.942a.331.331,0,0,1,.661,0v.942A4.72,4.72,0,0,1,22.332,36.6,5.951,5.951,0,0,1,19.423,37.352Z"/><path d="M14.437,26.211a3.228,3.228,0,1,1,3.227-3.228A3.232,3.232,0,0,1,14.437,26.211Zm0-5.794A2.567,2.567,0,1,0,17,22.983,2.569,2.569,0,0,0,14.437,20.417Z"/><path d="M14.437,24.535a1.552,1.552,0,1,1,1.551-1.552A1.553,1.553,0,0,1,14.437,24.535Zm0-2.443a.891.891,0,1,0,.89.891A.892.892,0,0,0,14.437,22.092Z"/><path d="M21.056,48.28a.489.489,0,0,1-.2-.043,26.821,26.821,0,0,1-11.44-9.543,25.223,25.223,0,0,1-4.4-14.154V10.516a.5.5,0,0,1,.414-.495l.626-.113A53.166,53.166,0,0,0,20.825,5.015a.5.5,0,0,1,.462,0A53.183,53.183,0,0,0,36.06,9.908l.626.113a.5.5,0,0,1,.413.495V24.54a25.223,25.223,0,0,1-4.4,14.154,26.825,26.825,0,0,1-11.439,9.543A.5.5,0,0,1,21.056,48.28ZM6.019,10.936v13.6a24.223,24.223,0,0,0,4.228,13.591,25.83,25.83,0,0,0,10.809,9.1,25.83,25.83,0,0,0,10.809-9.1A24.223,24.223,0,0,0,36.093,24.54v-13.6l-.212-.038A54.411,54.411,0,0,1,21.056,6.027,54.4,54.4,0,0,1,6.231,10.9Z"/><path d="M21.056,44.709a.509.509,0,0,1-.225-.053A22.759,22.759,0,0,1,8.077,24.629V13.2a.5.5,0,0,1,.4-.492,53.792,53.792,0,0,0,12.359-4.1.5.5,0,0,1,.44,0,53.808,53.808,0,0,0,12.359,4.1.5.5,0,0,1,.4.492V24.629A22.76,22.76,0,0,1,21.281,44.656.509.509,0,0,1,21.056,44.709ZM9.083,13.611V24.629A21.733,21.733,0,0,0,21.056,43.642,21.734,21.734,0,0,0,33.03,24.629V13.611A55.307,55.307,0,0,1,21.056,9.626,55.338,55.338,0,0,1,9.083,13.611Z"/></svg>